<svg width="80" height="80" viewBox="0 0 80 80" fill="none" xmlns="http://www.w3.org/2000/svg">
<g filter="url(#filter0_d_123_122)">
<g filter="url(#filter1_d_123_122)">
<circle cx="40" cy="28" r="16" fill="url(#paint0_linear_123_122)"/>
</g>
<path fill-rule="evenodd" clip-rule="evenodd" d="M42.8192 21.0256H37.1813C34.89 21.0256 33.0259 22.8897 33.0259 25.181V30.819C33.0259 33.1103 34.89 34.9744 37.1813 34.9744H42.8192C45.1105 34.9744 46.9746 33.1103 46.9746 30.819V25.181C46.9746 22.8897 45.1105 21.0256 42.8192 21.0256ZM45.5711 30.819C45.5711 32.3389 44.3389 33.5711 42.819 33.5711H37.181C35.6611 33.5711 34.4289 32.3389 34.4289 30.819V25.181C34.4289 23.6611 35.6611 22.4289 37.181 22.4289H42.819C44.3389 22.4289 45.5711 23.6611 45.5711 25.181V30.819ZM36.3924 27.9999C36.3924 26.0107 38.0108 24.3923 40.0001 24.3923C41.9893 24.3923 43.6077 26.0107 43.6077 27.9999C43.6077 29.9892 41.9893 31.6076 40.0001 31.6076C38.0108 31.6076 36.3924 29.9892 36.3924 27.9999ZM40.0001 30.2044C38.7826 30.2044 37.7957 29.2174 37.7957 28C37.7957 26.7825 38.7826 25.7956 40.0001 25.7956C41.2175 25.7956 42.2045 26.7825 42.2045 28C42.2045 29.2174 41.2175 30.2044 40.0001 30.2044ZM43.6147 25.2839C44.0921 25.2839 44.4791 24.8969 44.4791 24.4195C44.4791 23.942 44.0921 23.555 43.6147 23.555C43.1372 23.555 42.7502 23.942 42.7502 24.4195C42.7502 24.8969 43.1372 25.2839 43.6147 25.2839Z" fill="white"/>
</g>
<defs>
<filter id="filter0_d_123_122" x="0" y="0" width="80" height="80" filterUnits="userSpaceOnUse" color-interpolation-filters="sRGB">
<feFlood flood-opacity="0" result="BackgroundImageFix"/>
<feColorMatrix in="SourceAlpha" type="matrix" values="0 0 0 0 0 0 0 0 0 0 0 0 0 0 0 0 0 0 127 0" result="hardAlpha"/>
<feOffset dy="12"/>
<feGaussianBlur stdDeviation="12"/>
<feColorMatrix type="matrix" values="0 0 0 0 0 0 0 0 0 0 0 0 0 0 0 0 0 0 0.1 0"/>
<feBlend mode="normal" in2="BackgroundImageFix" result="effect1_dropShadow_123_122"/>
<feBlend mode="normal" in="SourceGraphic" in2="effect1_dropShadow_123_122" result="shape"/>
</filter>
<filter id="filter1_d_123_122" x="16" y="8" width="48" height="48" filterUnits="userSpaceOnUse" color-interpolation-filters="sRGB">
<feFlood flood-opacity="0" result="BackgroundImageFix"/>
<feColorMatrix in="SourceAlpha" type="matrix" values="0 0 0 0 0 0 0 0 0 0 0 0 0 0 0 0 0 0 127 0" result="hardAlpha"/>
<feOffset dy="4"/>
<feGaussianBlur stdDeviation="4"/>
<feColorMatrix type="matrix" values="0 0 0 0 0 0 0 0 0 0 0 0 0 0 0 0 0 0 0.1 0"/>
<feBlend mode="normal" in2="BackgroundImageFix" result="effect1_dropShadow_123_122"/>
<feBlend mode="normal" in="SourceGraphic" in2="effect1_dropShadow_123_122" result="shape"/>
</filter>
<linearGradient id="paint0_linear_123_122" x1="24.1069" y1="11.9465" x2="24" y2="43.9465" gradientUnits="userSpaceOnUse">
<stop stop-color="#7024C4"/>
<stop offset="0.415461" stop-color="#C21975"/>
<stop offset="0.702206" stop-color="#C74C4D"/>
<stop offset="1" stop-color="#E09B3D"/>
</linearGradient>
</defs>
</svg>
